<svg width="100%" height="100%" viewBox="0 0 164 250" version="1.1" xmlns="http://www.w3.org/2000/svg">
    <g id="background" transform="matrix(3.47379,0,0,3.87945,-169.143,-108.216)">
        <rect x="48.691" y="27.895" width="47.211" height="64.442" style="fill:rgb(235,235,235);" />
    </g>
    <g id="wording" transform="matrix(1,0,0,1,0.234523,20.7831)">
        <g id="soon">
            <path
                d="M105.759,148.781L105.759,123.653L111.627,123.653L117.927,141.545L117.999,141.545L117.927,123.653L122.175,123.653L122.175,148.781L116.343,148.781L110.043,131.069L109.971,131.069L110.007,148.781L105.759,148.781Z"
                style="fill:rgb(235,235,235);fill-rule:nonzero;stroke:rgb(147,51,234);stroke-width:1px;" />
            <path
                d="M91.395,149.069C88.947,149.069 86.787,148.529 84.915,147.449C83.043,146.369 81.579,144.863 80.523,142.931C79.467,140.999 78.939,138.761 78.939,136.217C78.939,133.673 79.467,131.435 80.523,129.503C81.579,127.571 83.043,126.065 84.915,124.985C86.787,123.905 88.947,123.365 91.395,123.365C93.867,123.365 96.039,123.911 97.911,125.003C99.783,126.095 101.247,127.601 102.303,129.521C103.359,131.441 103.887,133.673 103.887,136.217C103.887,138.737 103.359,140.963 102.303,142.895C101.247,144.827 99.783,146.339 97.911,147.431C96.039,148.523 93.867,149.069 91.395,149.069ZM83.907,136.217C83.907,137.825 84.225,139.259 84.861,140.519C85.497,141.779 86.379,142.763 87.507,143.471C88.635,144.179 89.931,144.533 91.395,144.533C92.883,144.533 94.191,144.179 95.319,143.471C96.447,142.763 97.329,141.785 97.965,140.537C98.601,139.289 98.919,137.849 98.919,136.217C98.919,134.585 98.601,133.151 97.965,131.915C97.329,130.679 96.447,129.707 95.319,128.999C94.191,128.291 92.883,127.937 91.395,127.937C89.931,127.937 88.635,128.291 87.507,128.999C86.379,129.707 85.497,130.679 84.861,131.915C84.225,133.151 83.907,134.585 83.907,136.217Z"
                style="fill:rgb(235,235,235);fill-rule:nonzero;stroke:rgb(147,51,234);stroke-width:1px;" />
            <path
                d="M65.439,149.069C62.991,149.069 60.831,148.529 58.959,147.449C57.087,146.369 55.623,144.863 54.567,142.931C53.511,140.999 52.983,138.761 52.983,136.217C52.983,133.673 53.511,131.435 54.567,129.503C55.623,127.571 57.087,126.065 58.959,124.985C60.831,123.905 62.991,123.365 65.439,123.365C67.911,123.365 70.083,123.911 71.955,125.003C73.827,126.095 75.291,127.601 76.347,129.521C77.403,131.441 77.931,133.673 77.931,136.217C77.931,138.737 77.403,140.963 76.347,142.895C75.291,144.827 73.827,146.339 71.955,147.431C70.083,148.523 67.911,149.069 65.439,149.069ZM57.951,136.217C57.951,137.825 58.269,139.259 58.905,140.519C59.541,141.779 60.423,142.763 61.551,143.471C62.679,144.179 63.975,144.533 65.439,144.533C66.927,144.533 68.235,144.179 69.363,143.471C70.491,142.763 71.373,141.785 72.009,140.537C72.645,139.289 72.963,137.849 72.963,136.217C72.963,134.585 72.645,133.151 72.009,131.915C71.373,130.679 70.491,129.707 69.363,128.999C68.235,128.291 66.927,127.937 65.439,127.937C63.975,127.937 62.679,128.291 61.551,128.999C60.423,129.707 59.541,130.679 58.905,131.915C58.269,133.151 57.951,134.585 57.951,136.217Z"
                style="fill:rgb(235,235,235);fill-rule:nonzero;stroke:rgb(147,51,234);stroke-width:1px;" />
            <path
                d="M45.639,149.069C44.103,149.069 42.615,148.757 41.175,148.133L41.175,142.985C42.015,143.633 42.771,144.101 43.443,144.389C44.115,144.677 44.739,144.821 45.315,144.821C45.963,144.821 46.521,144.629 46.989,144.245C47.457,143.861 47.691,143.261 47.691,142.445C47.691,141.893 47.571,141.359 47.331,140.843C47.091,140.327 46.767,139.805 46.359,139.277L43.155,134.993C42.555,134.177 42.057,133.319 41.661,132.419C41.265,131.519 41.067,130.517 41.067,129.413C41.067,127.421 41.661,125.915 42.849,124.895C44.037,123.875 45.567,123.365 47.439,123.365C48.519,123.365 49.659,123.533 50.859,123.869L50.859,128.261C50.331,127.997 49.791,127.781 49.239,127.613C48.687,127.445 48.171,127.361 47.691,127.361C47.043,127.361 46.527,127.529 46.143,127.865C45.759,128.201 45.567,128.681 45.567,129.305C45.567,130.025 45.879,130.805 46.503,131.645L49.563,135.713C50.403,136.841 51.087,137.903 51.615,138.899C52.143,139.895 52.407,141.101 52.407,142.517C52.407,144.629 51.777,146.249 50.517,147.377C49.257,148.505 47.631,149.069 45.639,149.069Z"
                style="fill:rgb(235,235,235);fill-rule:nonzero;stroke:rgb(147,51,234);stroke-width:1px;" />
        </g>
        <g id="coming">
            <path
                d="M131.175,85.069C128.607,85.069 126.375,84.529 124.479,83.449C122.583,82.369 121.113,80.863 120.069,78.931C119.025,76.999 118.503,74.761 118.503,72.217C118.503,69.673 119.037,67.435 120.105,65.503C121.173,63.571 122.661,62.065 124.569,60.985C126.477,59.905 128.691,59.365 131.211,59.365C132.459,59.365 133.641,59.479 134.757,59.707C135.873,59.935 136.923,60.229 137.907,60.589L137.907,65.845C136.995,65.269 135.975,64.813 134.847,64.477C133.719,64.141 132.567,63.973 131.391,63.973C129.711,63.973 128.277,64.327 127.089,65.035C125.901,65.743 124.995,66.715 124.371,67.951C123.747,69.187 123.435,70.609 123.435,72.217C123.435,73.801 123.741,75.217 124.353,76.465C124.965,77.713 125.859,78.691 127.035,79.399C128.211,80.107 129.627,80.461 131.283,80.461C131.835,80.461 132.417,80.419 133.029,80.335C133.641,80.251 134.259,80.113 134.883,79.921L134.883,74.557L129.267,74.557L129.267,70.201L139.563,70.201L139.563,83.017C138.171,83.761 136.749,84.289 135.297,84.601C133.845,84.913 132.471,85.069 131.175,85.069Z"
                style="fill:rgb(235,235,235);fill-rule:nonzero;stroke:rgb(147,51,234);stroke-width:1px;" />
            <path
                d="M100.215,84.781L100.215,59.653L106.083,59.653L112.383,77.545L112.455,77.545L112.383,59.653L116.631,59.653L116.631,84.781L110.799,84.781L104.499,67.069L104.427,67.069L104.463,84.781L100.215,84.781Z"
                style="fill:rgb(235,235,235);fill-rule:nonzero;stroke:rgb(147,51,234);stroke-width:1px;" />
            <rect x="92.799" y="59.653" width="4.68" height="25.128"
                style="fill:rgb(235,235,235);fill-rule:nonzero;stroke:rgb(147,51,234);stroke-width:1px;" />
            <path
                d="M66.411,84.781L68.067,59.653L74.799,59.653L78.543,76.141L78.615,76.141L82.251,59.653L88.983,59.653L90.639,84.781L85.959,84.781L84.951,65.629L84.879,65.629L80.307,84.781L76.599,84.781L71.991,65.629L71.919,65.629L70.911,84.781L66.411,84.781Z"
                style="fill:rgb(235,235,235);fill-rule:nonzero;stroke:rgb(147,51,234);stroke-width:1px;" />
            <path
                d="M52.983,85.069C50.535,85.069 48.375,84.529 46.503,83.449C44.631,82.369 43.167,80.863 42.111,78.931C41.055,76.999 40.527,74.761 40.527,72.217C40.527,69.673 41.055,67.435 42.111,65.503C43.167,63.571 44.631,62.065 46.503,60.985C48.375,59.905 50.535,59.365 52.983,59.365C55.455,59.365 57.627,59.911 59.499,61.003C61.371,62.095 62.835,63.601 63.891,65.521C64.947,67.441 65.475,69.673 65.475,72.217C65.475,74.737 64.947,76.963 63.891,78.895C62.835,80.827 61.371,82.339 59.499,83.431C57.627,84.523 55.455,85.069 52.983,85.069ZM45.495,72.217C45.495,73.825 45.813,75.259 46.449,76.519C47.085,77.779 47.967,78.763 49.095,79.471C50.223,80.179 51.519,80.533 52.983,80.533C54.471,80.533 55.779,80.179 56.907,79.471C58.035,78.763 58.917,77.785 59.553,76.537C60.189,75.289 60.507,73.849 60.507,72.217C60.507,70.585 60.189,69.151 59.553,67.915C58.917,66.679 58.035,65.707 56.907,64.999C55.779,64.291 54.471,63.937 52.983,63.937C51.519,63.937 50.223,64.291 49.095,64.999C47.967,65.707 47.085,66.679 46.449,67.915C45.813,69.151 45.495,70.585 45.495,72.217Z"
                style="fill:rgb(235,235,235);fill-rule:nonzero;stroke:rgb(147,51,234);stroke-width:1px;" />
            <path
                d="M36.531,85.069C34.059,85.069 31.875,84.529 29.979,83.449C28.083,82.369 26.607,80.863 25.551,78.931C24.495,76.999 23.967,74.761 23.967,72.217C23.967,69.673 24.495,67.435 25.551,65.503C26.607,63.571 28.083,62.065 29.979,60.985C31.875,59.905 34.059,59.365 36.531,59.365C37.947,59.365 39.363,59.533 40.779,59.869L40.779,64.909C40.035,64.573 39.297,64.345 38.565,64.225C37.833,64.105 37.167,64.045 36.567,64.045C35.055,64.045 33.729,64.381 32.589,65.053C31.449,65.725 30.561,66.673 29.925,67.897C29.289,69.121 28.971,70.561 28.971,72.217C28.971,73.873 29.289,75.313 29.925,76.537C30.561,77.761 31.449,78.709 32.589,79.381C33.729,80.053 35.055,80.389 36.567,80.389C37.167,80.389 37.833,80.323 38.565,80.191C39.297,80.059 40.035,79.837 40.779,79.525L40.779,84.565C39.363,84.901 37.947,85.069 36.531,85.069Z"
                style="fill:rgb(235,235,235);fill-rule:nonzero;stroke:rgb(147,51,234);stroke-width:1px;" />
        </g>
    </g>
</svg>